<svg width="1096" height="539" viewBox="0 0 1096 539" fill="none" xmlns="http://www.w3.org/2000/svg">
<path d="M199.5 470V370.5H11V341L183 120H257V360.5H325V370.5H257V470H199.5ZM55 360.5H199.5V176L55 360.5Z" fill="#F5F5F5"/>
<path d="M966.5 470V370.5H778V341L950 120H1024V360.5H1092V370.5H1024V470H966.5ZM822 360.5H966.5V176L822 360.5Z" fill="#F5F5F5"/>
<path d="M548 477.5C518.333 477.5 491.667 469.833 468 454.5C444.667 438.833 426.5 417.167 413.5 389.5C400.5 361.5 394 330 394 295C394 259.667 400.5 228.167 413.5 200.5C426.5 172.833 444.667 151.333 468 136C491.667 120.333 518.333 112.5 548 112.5C577.667 112.5 604.167 120.333 627.5 136C650.833 151.333 669 172.833 682 200.5C695 228.167 701.5 259.667 701.5 295C701.5 330 695 361.5 682 389.5C669 417.167 650.833 438.833 627.5 454.5C604.167 469.833 577.667 477.5 548 477.5ZM548 425C566.667 425 583.167 419.667 597.5 409C611.833 398 623 382.667 631 363C639 343.333 643 320.667 643 295C643 269.333 639 246.667 631 227C623 207.333 611.833 192.167 597.5 181.5C583.167 170.5 566.667 165 548 165C529.333 165 512.833 170.5 498.5 181.5C484.167 192.167 473 207.333 465 227C457 246.667 453 269.333 453 295C453 320.667 457 343.333 465 363C473 382.667 484.167 398 498.5 409C512.833 419.667 529.333 425 548 425Z" fill="#F5F5F5"/>
<path d="M475.5 387.5C479.167 377.5 500.1 353 550.5 343C600.9 333 630.667 265.5 638 235.5" stroke="#F5F5F5" stroke-width="4" stroke-linecap="round"/>
<path d="M531.5 165.5C534.167 220.833 553.5 301.4 595.5 179" stroke="#F5F5F5" stroke-width="4" stroke-linecap="round"/>
<path d="M545.5 165C551.833 199.5 568.1 249.2 582.5 172" stroke="#F5F5F5" stroke-width="4" stroke-linecap="round"/>
<path d="M499.5 179.5C515.333 204 533.9 282.5 475.5 386.5" stroke="#F5F5F5" stroke-width="4" stroke-linecap="round"/>
<path d="M484.5 191C498.667 228.5 515.8 318.6 467 369" stroke="#F5F5F5" stroke-width="4" stroke-linecap="round"/>
<path d="M464 219.5C474 250.5 502 314 453.5 339" stroke="#F5F5F5" stroke-width="4" stroke-linecap="round"/>
<path d="M521.5 168C522.167 252 540 375.7 604 186.5" stroke="#F5F5F5" stroke-width="4" stroke-linecap="round"/>
<path d="M642.5 320C610.833 332.833 549.9 371.7 559.5 424.5" stroke="#F5F5F5" stroke-width="4" stroke-linecap="round"/>
<path d="M634.5 360C610 360.167 562.6 372.5 581 418.5" stroke="#F5F5F5" stroke-width="4" stroke-linecap="round"/>
<path d="M626 380.5C612.167 378.833 582.5 383.5 594.5 411.5" stroke="#F5F5F5" stroke-width="4" stroke-linecap="round"/>
<path d="M515.5 424C500.5 402 516.6 386.2 555 357C603 320.5 630 322.5 644.5 268" stroke="#F5F5F5" stroke-width="4" stroke-linecap="round"/>
</svg>
