<svg width="20" height="20" viewBox="0 0 20 20" fill="none" xmlns="http://www.w3.org/2000/svg">
<path d="M3.30926 0.934675L9.99992 7.62534L16.6559 0.969341C16.8029 0.812852 16.9801 0.687666 17.1766 0.601289C17.3732 0.514913 17.5852 0.469126 17.7999 0.466675C18.2596 0.466675 18.7005 0.649293 19.0256 0.974356C19.3506 1.29942 19.5333 1.7403 19.5333 2.20001C19.5373 2.41252 19.4979 2.62361 19.4174 2.82034C19.3369 3.01706 19.2171 3.19526 19.0653 3.34401L12.3226 10L19.0653 16.7427C19.3509 17.0222 19.5185 17.4006 19.5333 17.8C19.5333 18.2597 19.3506 18.7006 19.0256 19.0257C18.7005 19.3507 18.2596 19.5333 17.7999 19.5333C17.579 19.5425 17.3586 19.5056 17.1527 19.4251C16.9468 19.3445 16.7599 19.222 16.6039 19.0653L9.99992 12.3747L3.32659 19.048C3.18013 19.1993 3.00517 19.3201 2.81179 19.4034C2.61842 19.4867 2.41046 19.5308 2.19992 19.5333C1.74022 19.5333 1.29934 19.3507 0.974272 19.0257C0.649209 18.7006 0.466591 18.2597 0.466591 17.8C0.462549 17.5875 0.501977 17.3764 0.582455 17.1797C0.662933 16.983 0.782763 16.8048 0.934591 16.656L7.67726 10L0.934591 3.25734C0.648911 2.97786 0.481393 2.59939 0.466591 2.20001C0.466591 1.7403 0.649209 1.29942 0.974272 0.974356C1.29934 0.649293 1.74022 0.466675 2.19992 0.466675C2.61592 0.471875 3.01459 0.640008 3.30926 0.934675Z" fill="#FFC099"/>
</svg>
