<svg width="40" height="40" viewBox="0 0 40 40" fill="none" xmlns="http://www.w3.org/2000/svg">
<path d="M23.6289 3.40234C23.6809 3.20372 23.772 3.01747 23.8968 2.85449C24.0217 2.69152 24.1778 2.55511 24.3561 2.45325C24.5344 2.35138 24.7311 2.28612 24.9349 2.26128C25.1388 2.23644 25.3455 2.25253 25.543 2.30859C28.4557 3.08979 31.1116 4.6236 33.244 6.756C35.3764 8.88839 36.9102 11.5443 37.6914 14.457C37.7475 14.6545 37.7636 14.8612 37.7387 15.065C37.7139 15.2688 37.6486 15.4656 37.5468 15.6439C37.4449 15.8222 37.3085 15.9783 37.1455 16.1032C36.9825 16.228 36.7963 16.3191 36.5977 16.3711C36.4643 16.4097 36.3263 16.4294 36.1875 16.4297C35.8426 16.4277 35.5081 16.3117 35.2361 16.0997C34.9641 15.8877 34.7698 15.5917 34.6836 15.2578C34.0338 12.8795 32.7751 10.7116 31.0317 8.96825C29.2884 7.22486 27.1205 5.96618 24.7422 5.31641C24.5418 5.26658 24.3535 5.17703 24.1883 5.05308C24.0232 4.92913 23.8846 4.7733 23.7808 4.59481C23.677 4.41632 23.61 4.2188 23.5839 4.01397C23.5578 3.80914 23.5731 3.60116 23.6289 3.40234ZM23.1211 11.3516C24.4431 11.7135 25.6481 12.4135 26.6173 13.3827C27.5865 14.3519 28.2865 15.5569 28.6484 16.8789C28.7316 17.2145 28.925 17.5124 29.1977 17.7249C29.4704 17.9374 29.8066 18.0522 30.1523 18.0508C30.2848 18.0521 30.4167 18.0323 30.543 17.9922C30.7434 17.9424 30.9317 17.8528 31.0968 17.7289C31.262 17.6049 31.4006 17.4491 31.5044 17.2706C31.6082 17.0921 31.6751 16.8946 31.7012 16.6898C31.7273 16.4849 31.712 16.2769 31.6562 16.0781C31.163 14.2217 30.1879 12.5286 28.8296 11.1704C27.4714 9.81214 25.7783 8.837 23.9219 8.34375C23.7181 8.2695 23.501 8.2385 23.2846 8.25272C23.0681 8.26695 22.857 8.32609 22.6646 8.42638C22.4723 8.52666 22.3029 8.6659 22.1674 8.83523C22.0318 9.00455 21.9329 9.20025 21.8771 9.40987C21.8213 9.61949 21.8098 9.83843 21.8432 10.0528C21.8767 10.2671 21.9544 10.4721 22.0714 10.6547C22.1884 10.8374 22.3422 10.9937 22.5229 11.1137C22.7036 11.2336 22.9073 11.3146 23.1211 11.3516ZM39.2344 30.1992C38.8889 32.8367 37.5973 35.259 35.5999 37.0158C33.6025 38.7725 31.035 39.7441 28.375 39.75C12.8672 39.75 0.25 27.1328 0.25 11.625C0.255864 8.96496 1.22749 6.39755 2.98422 4.40011C4.74096 2.40268 7.16327 1.11114 9.80078 0.765625C10.4731 0.691076 11.1518 0.832635 11.7382 1.16977C12.3247 1.50691 12.7886 2.0221 13.0625 2.64063L16.9883 11.8008C17.1919 12.2763 17.2736 12.7951 17.2258 13.3101C17.1781 13.8251 17.0024 14.3201 16.7148 14.75L13.4727 19.7109C14.9408 22.6904 17.3599 25.0957 20.3477 26.5469L25.25 23.2852C25.6795 22.9957 26.1757 22.8204 26.6917 22.776C27.2077 22.7316 27.7266 22.8194 28.1992 23.0312L37.3594 26.9375C37.9779 27.2114 38.4931 27.6753 38.8302 28.2618C39.1674 28.8482 39.3089 29.5269 39.2344 30.1992ZM36.1289 29.8086L26.9687 25.9023L22.0859 29.1641C21.6367 29.4611 21.1182 29.6369 20.581 29.6746C20.0437 29.7122 19.5058 29.6104 19.0195 29.3789C15.3807 27.6187 12.4374 24.6891 10.6602 21.0586C10.4258 20.5739 10.3207 20.037 10.3549 19.4997C10.3891 18.9625 10.5616 18.4432 10.8555 17.9922L14.1172 13.0312L10.1914 3.87109C8.30654 4.11339 6.57462 5.0344 5.31991 6.46168C4.0652 7.88895 3.37374 9.72463 3.375 11.625C3.38017 18.2538 6.01575 24.6097 10.703 29.297C15.3903 33.9842 21.7462 36.6198 28.375 36.625C30.2754 36.6263 32.111 35.9348 33.5383 34.6801C34.9656 33.4254 35.8866 31.6935 36.1289 29.8086Z" fill="#F5F5F5"/>
</svg>
