<svg width="1434" height="3489" viewBox="0 0 1434 3489" fill="none" xmlns="http://www.w3.org/2000/svg">
<path d="M98.7727 0C131.364 88.0807 115.068 211.394 1 264.242" stroke="#F1DED0" stroke-opacity="0.29" stroke-width="0.5" stroke-linecap="round"/>
<path d="M229.136 0C288.886 132.121 326.909 428.072 1 554.909" stroke="#F1DED0" stroke-opacity="0.29" stroke-width="0.5" stroke-linecap="round"/>
<path d="M555.045 0C527.886 229.01 382.313 692.314 17.2954 713.454" stroke="#F1DED0" stroke-opacity="0.29" stroke-width="0.5" stroke-linecap="round"/>
<path d="M799.477 0C756.022 246.626 538.75 776.872 17.2954 924.847" stroke="#F1DED0" stroke-opacity="0.29" stroke-width="0.5" stroke-linecap="round"/>
<path d="M1092.79 0C929.84 299.474 581.118 898.423 489.863 898.423C398.609 898.423 125.932 1409.29 1 1664.73" stroke="#F1DED0" stroke-opacity="0.29" stroke-width="0.5" stroke-linecap="round"/>
<path d="M1418.7 0C603.932 801.535 -693.185 2621.28 636.523 3488" stroke="#F1DED0" stroke-opacity="0.29" stroke-width="0.5" stroke-linecap="round"/>
<path d="M1 3118.05C28.1591 3232.56 111.809 3466.85 229.136 3487.99" stroke="#F1DED0" stroke-opacity="0.29" stroke-width="0.5" stroke-linecap="round"/>
<path d="M1435 317.092C750.591 1048.16 -210.84 2320.05 1418.7 1559.03" stroke="#F1DED0" stroke-opacity="0.29" stroke-width="0.5" stroke-linecap="round"/>
<path d="M1418.71 581.336C1033.05 995.316 343.204 1955.4 1418.71 1347.64" stroke="#F1DED0" stroke-opacity="0.29" stroke-width="0.5" stroke-linecap="round"/>
<path d="M1418.7 1744C761.454 1867.31 -15.2949 2431.03 848.363 3488" stroke="#F1DED0" stroke-opacity="0.29" stroke-width="0.5" stroke-linecap="round"/>
<path d="M1435 2061.09C1011.32 2140.36 212.841 2219.64 946.137 3461.57" stroke="#F1DED0" stroke-opacity="0.29" stroke-width="0.5" stroke-linecap="round"/>
<path d="M1418.7 2378.18C1103.66 2404.61 489.863 2246.06 1043.91 3488" stroke="#F1DED0" stroke-opacity="0.29" stroke-width="0.5" stroke-linecap="round"/>
<path d="M1418.7 2616C1212.3 2677.65 783.181 2404.6 1157.98 3488" stroke="#F1DED0" stroke-opacity="0.29" stroke-width="0.5" stroke-linecap="round"/>
<path d="M1435 2885.76C1296.89 2933.56 1037.94 2570.3 1262.36 3487.99" stroke="#F1DED0" stroke-opacity="0.29" stroke-width="0.5" stroke-linecap="round"/>
<path d="M1386.11 3488H1418.7" stroke="#F1DED0" stroke-opacity="0.29" stroke-width="0.5" stroke-linecap="round"/>
</svg>
